<svg width="1920" height="1080" viewBox="0 0 1920 1080" fill="none" xmlns="http://www.w3.org/2000/svg">
<rect width="1920" height="1080" fill="#98CDFF"/>
<rect x="1490.66" y="82" width="194" height="8" transform="rotate(45 1490.66 82)" fill="url(#paint0_linear_1_18)"/>
<rect x="1631.48" y="13" width="222.238" height="9.16444" transform="rotate(45 1631.48 13)" fill="url(#paint1_linear_1_18)"/>
<rect x="1717.99" y="233" width="136.705" height="5.6373" transform="rotate(45 1717.99 233)" fill="url(#paint2_linear_1_18)"/>
<rect x="1700.73" y="425.747" width="42.3104" height="5.6373" transform="rotate(45 1700.73 425.747)" fill="url(#paint3_linear_1_18)"/>
<rect x="1441.71" y="454.726" width="247.4" height="5.6373" transform="rotate(45 1441.71 454.726)" fill="url(#paint4_linear_1_18)"/>
<rect x="46.9862" y="71" width="247.4" height="5.6373" transform="rotate(45 46.9862 71)" fill="url(#paint5_linear_1_18)"/>
<rect x="108.983" y="173.997" width="316.702" height="5.6373" transform="rotate(45 108.983 173.997)" fill="url(#paint6_linear_1_18)"/>
<rect x="-12.6944" y="394.319" width="211.598" height="5.6373" transform="rotate(45 -12.6944 394.319)" fill="url(#paint7_linear_1_18)"/>
<rect x="92.9896" y="174.01" width="8.52943" height="8.52943" transform="rotate(-45 92.9896 174.01)" fill="#FFE17D"/>
<rect x="1620" y="223.016" width="8.52943" height="8.52943" transform="rotate(-45 1620 223.016)" fill="#FFE17D"/>
<rect x="1568" y="358.031" width="8.52943" height="8.52943" transform="rotate(-45 1568 358.031)" fill="#FFE17D"/>
<rect x="1817" y="540.031" width="8.52943" height="8.52943" transform="rotate(-45 1817 540.031)" fill="#FFE17D"/>
<rect x="1780" y="177.016" width="12.75" height="12.75" transform="rotate(-45 1780 177.016)" fill="#FFE17D"/>
<rect x="1780" y="361.992" width="5.64581" height="5.64581" transform="rotate(-45 1780 361.992)" fill="#FFE17D"/>
<rect x="1809" y="331.977" width="5.64581" height="5.64581" transform="rotate(-45 1809 331.977)" fill="#FFE17D"/>
<rect x="1726" y="458.977" width="5.64581" height="5.64581" transform="rotate(-45 1726 458.977)" fill="#FFE17D"/>
<rect x="1612" y="632.992" width="5.64581" height="5.64581" transform="rotate(-45 1612 632.992)" fill="#FFE17D"/>
<rect x="180" y="283.031" width="7.04897" height="7.04897" transform="rotate(-45 180 283.031)" fill="#FFE17D"/>
<rect x="58" y="377.984" width="7.04897" height="7.04897" transform="rotate(-45 58 377.984)" fill="#FFE17D"/>
<rect x="132" y="547.984" width="7.04897" height="7.04897" transform="rotate(-45 132 547.984)" fill="#FFE17D"/>
<rect x="216" y="248.984" width="7.04897" height="7.04897" transform="rotate(-45 216 248.984)" fill="#FFE17D"/>
<rect x="585" y="124.992" width="4.23159" height="4.23159" transform="rotate(-45 585 124.992)" fill="#FFE17D"/>
<rect x="691" y="181.996" width="5.65133" height="5.65133" transform="rotate(-45 691 181.996)" fill="#FFE17D"/>
<rect x="328" y="401.984" width="7.04897" height="7.04897" transform="rotate(-45 328 401.984)" fill="#FFE17D"/>
<defs>
<linearGradient id="paint0_linear_1_18" x1="1490.66" y1="86" x2="1684.66" y2="86" gradientUnits="userSpaceOnUse">
<stop stop-color="white" stop-opacity="0"/>
<stop offset="1" stop-color="white" stop-opacity="0.7"/>
</linearGradient>
<linearGradient id="paint1_linear_1_18" x1="1631.48" y1="17.5822" x2="1853.72" y2="17.5822" gradientUnits="userSpaceOnUse">
<stop stop-color="white" stop-opacity="0"/>
<stop offset="1" stop-color="white" stop-opacity="0.7"/>
</linearGradient>
<linearGradient id="paint2_linear_1_18" x1="1717.99" y1="235.819" x2="1854.69" y2="235.819" gradientUnits="userSpaceOnUse">
<stop stop-color="white" stop-opacity="0"/>
<stop offset="1" stop-color="white" stop-opacity="0.7"/>
</linearGradient>
<linearGradient id="paint3_linear_1_18" x1="1700.73" y1="428.565" x2="1743.04" y2="428.565" gradientUnits="userSpaceOnUse">
<stop stop-color="white" stop-opacity="0"/>
<stop offset="1" stop-color="white" stop-opacity="0.7"/>
</linearGradient>
<linearGradient id="paint4_linear_1_18" x1="1441.71" y1="457.545" x2="1689.11" y2="457.545" gradientUnits="userSpaceOnUse">
<stop stop-color="white" stop-opacity="0"/>
<stop offset="1" stop-color="white" stop-opacity="0.7"/>
</linearGradient>
<linearGradient id="paint5_linear_1_18" x1="46.9862" y1="73.8187" x2="294.387" y2="73.8187" gradientUnits="userSpaceOnUse">
<stop stop-color="white" stop-opacity="0"/>
<stop offset="1" stop-color="white" stop-opacity="0.7"/>
</linearGradient>
<linearGradient id="paint6_linear_1_18" x1="108.983" y1="176.815" x2="425.684" y2="176.815" gradientUnits="userSpaceOnUse">
<stop stop-color="white" stop-opacity="0"/>
<stop offset="1" stop-color="white" stop-opacity="0.7"/>
</linearGradient>
<linearGradient id="paint7_linear_1_18" x1="-12.6944" y1="397.138" x2="198.904" y2="397.138" gradientUnits="userSpaceOnUse">
<stop stop-color="white" stop-opacity="0"/>
<stop offset="1" stop-color="white" stop-opacity="0.7"/>
</linearGradient>
</defs>
</svg>
